<svg width="19" height="22" viewBox="0 0 19 22" fill="none" xmlns="http://www.w3.org/2000/svg">
<path d="M19 15.4V1.1C19 0.4125 18.5929 0 17.9143 0H4.07143C1.76429 0 0 1.7875 0 4.125V17.875C0 20.2125 1.76429 22 4.07143 22H17.9143C18.4571 22 19 21.5875 19 20.9V20.2125C19 19.9375 18.8643 19.6625 18.5929 19.3875C18.4571 18.7 18.4571 16.775 18.5929 16.225C18.8643 16.0875 19 15.8125 19 15.4ZM12.769 6.2657C12.7945 6.21371 12.8437 6.1875 12.8929 6.1875C12.9421 6.1875 12.9913 6.21371 13.0167 6.2657L13.4908 7.23895L14.5511 7.39492C14.6644 7.41168 14.7097 7.55262 14.6279 7.63383L13.8607 8.39137L14.0418 9.46086C14.057 9.55152 13.9862 9.625 13.9056 9.625C13.8844 9.625 13.8624 9.61984 13.8412 9.60867L12.8929 9.10379L11.9446 9.60867C11.9233 9.61984 11.9013 9.625 11.8801 9.625C11.7995 9.625 11.7287 9.55152 11.744 9.46086L11.925 8.39137L11.1578 7.63383C11.0756 7.55262 11.1209 7.41168 11.2346 7.39492L12.2944 7.23895L12.769 6.2657ZM10.3139 3.30043C10.8936 3.30043 11.47 3.40742 12.0264 3.61883C12.0685 3.61886 12.11 3.62824 12.1481 3.64632C12.1862 3.6644 12.2199 3.69073 12.2468 3.72345C12.2738 3.75617 12.2933 3.79448 12.304 3.83568C12.3148 3.87689 12.3164 3.91997 12.3089 3.9619C12.3014 4.00383 12.2849 4.04358 12.2606 4.07834C12.2363 4.1131 12.2047 4.14202 12.1681 4.16307C12.1315 4.18412 12.0909 4.19677 12.0489 4.20014C12.007 4.20351 11.9649 4.19752 11.9255 4.18258C11.8971 4.18258 11.7944 4.17355 11.7503 4.17355C9.53181 4.17355 7.72723 6.00188 7.72723 8.24957C7.72723 10.4968 9.53181 12.3256 11.7503 12.3256C11.794 12.3256 11.8979 12.3166 11.9255 12.3166C12.0921 12.3166 12.2139 12.4515 12.2139 12.6079C12.2139 12.7359 12.1316 12.8446 12.0179 12.8837C11.4636 13.093 10.8902 13.1991 10.3134 13.1991C7.61993 13.1996 5.42857 10.9789 5.42857 8.25C5.42857 5.52063 7.61993 3.30043 10.3139 3.30043ZM16.15 19.25H4.07143C3.25714 19.25 2.71429 18.7 2.71429 17.875C2.71429 17.05 3.39286 16.5 4.07143 16.5H16.15V19.25Z" fill="#202020"/>
</svg>
