<svg width="27" height="27" viewBox="0 0 27 27" fill="none" xmlns="http://www.w3.org/2000/svg">
<path fill-rule="evenodd" clip-rule="evenodd" d="M0 4.5C0 3.30653 0.474106 2.16193 1.31802 1.31802C2.16193 0.474106 3.30653 0 4.5 0H22.5C23.6935 0 24.8381 0.474106 25.682 1.31802C26.5259 2.16193 27 3.30653 27 4.5V22.5C27 23.6935 26.5259 24.8381 25.682 25.682C24.8381 26.5259 23.6935 27 22.5 27H4.5C3.30653 27 2.16193 26.5259 1.31802 25.682C0.474106 24.8381 0 23.6935 0 22.5V4.5ZM15 7.5C15 7.10218 14.842 6.72064 14.5607 6.43934C14.2794 6.15804 13.8978 6 13.5 6C13.1022 6 12.7206 6.15804 12.4393 6.43934C12.158 6.72064 12 7.10218 12 7.5V19.5C12 19.8978 12.158 20.2794 12.4393 20.5607C12.7206 20.842 13.1022 21 13.5 21C13.8978 21 14.2794 20.842 14.5607 20.5607C14.842 20.2794 15 19.8978 15 19.5V7.5ZM9 12C9 11.6022 8.84196 11.2206 8.56066 10.9393C8.27936 10.658 7.89782 10.5 7.5 10.5C7.10218 10.5 6.72064 10.658 6.43934 10.9393C6.15804 11.2206 6 11.6022 6 12V19.5C6 19.8978 6.15804 20.2794 6.43934 20.5607C6.72064 20.842 7.10218 21 7.5 21C7.89782 21 8.27936 20.842 8.56066 20.5607C8.84196 20.2794 9 19.8978 9 19.5V12ZM21 16.5C21 16.1022 20.842 15.7206 20.5607 15.4393C20.2794 15.158 19.8978 15 19.5 15C19.1022 15 18.7206 15.158 18.4393 15.4393C18.158 15.7206 18 16.1022 18 16.5V19.5C18 19.8978 18.158 20.2794 18.4393 20.5607C18.7206 20.842 19.1022 21 19.5 21C19.8978 21 20.2794 20.842 20.5607 20.5607C20.842 20.2794 21 19.8978 21 19.5V16.5Z" fill="#202020"/>
</svg>
